<svg xmlns="http://www.w3.org/2000/svg" viewBox="0 0 1500 1200"><defs><style>.cls-1{opacity:0.1;}.cls-10,.cls-11,.cls-12,.cls-13,.cls-14,.cls-15,.cls-16,.cls-17,.cls-18,.cls-19,.cls-2,.cls-20,.cls-21,.cls-22,.cls-23,.cls-24,.cls-25,.cls-26,.cls-4,.cls-5,.cls-6,.cls-7,.cls-8,.cls-9{fill:none;stroke-linecap:round;stroke-miterlimit:10;stroke-width:9px;}.cls-2{stroke:#000;}.cls-3{opacity:0.5;}.cls-4{stroke:#7fc242;}.cls-5{stroke:#00ade0;}.cls-6{stroke:#009c72;}.cls-7{stroke:#00759f;}.cls-8{stroke:#3bb65d;}.cls-9{stroke:#007e50;}.cls-10{stroke:#3f793b;}.cls-11{stroke:#3f913b;}.cls-12{stroke:#006c56;}.cls-13{stroke:#2d954a;}.cls-14{stroke:#ef4751;}.cls-15{stroke:#f58826;}.cls-16{stroke:#ef3b4b;}.cls-17{stroke:#ef6897;}.cls-18{stroke:#ef4426;}.cls-19{stroke:#ee4550;}.cls-20{stroke:#ee4651;}.cls-21{stroke:#f8981d;}.cls-22{stroke:#faac18;}.cls-23{stroke:#0078dc;}.cls-24{stroke:#224cc3;}.cls-25{stroke:#6450aa;}.cls-26{stroke:#45378d;}</style></defs><title>home-code-bg-alt-05</title><g id="mid_right" data-name="mid right" class="cls-1"><line class="cls-2" x1="251.67" y1="551.57" x2="158.86" y2="551.57"/><line class="cls-2" x1="240.26" y1="571" x2="186.96" y2="571"/><line class="cls-2" x1="269.53" y1="571" x2="225.97" y2="571"/><line class="cls-2" x1="172.8" y1="590.01" x2="120.22" y2="590.01"/><line class="cls-2" x1="213.34" y1="667.74" x2="160.75" y2="667.74"/><line class="cls-2" x1="102.44" y1="590.01" x2="102.44" y2="590.01"/><line class="cls-2" x1="172.8" y1="590.01" x2="155.23" y2="590.01"/><line class="cls-2" x1="206.98" y1="590.01" x2="308.09" y2="590.01"/><line class="cls-2" x1="74.06" y1="668.18" x2="175.18" y2="668.18"/><line class="cls-2" x1="190.51" y1="590.01" x2="190.51" y2="590.01"/><line class="cls-2" x1="20.81" y1="648.74" x2="-23.94" y2="648.74"/><line class="cls-2" x1="-1.06" y1="668.18" x2="-18.63" y2="668.18"/><line class="cls-2" x1="-60.63" y1="668.18" x2="-1.06" y2="668.18"/><line class="cls-2" x1="-59.59" y1="629.31" x2="33.22" y2="629.31"/><line class="cls-2" x1="40.24" y1="648.74" x2="84.22" y2="648.74"/><line class="cls-2" x1="134.17" y1="318.78" x2="203.16" y2="318.78"/><line class="cls-2" x1="226.49" y1="318.78" x2="226.49" y2="318.78"/><line class="cls-2" x1="134.17" y1="318.78" x2="157.23" y2="318.78"/><line class="cls-2" x1="108.02" y1="338.21" x2="151.65" y2="338.21"/><line class="cls-2" x1="114.21" y1="338.21" x2="45.22" y2="338.21"/><line class="cls-2" x1="17.59" y1="338.21" x2="-104.17" y2="338.21"/><line class="cls-2" x1="89.34" y1="318.78" x2="-43.32" y2="318.78"/><line class="cls-2" x1="19.8" y1="318.78" x2="-102.69" y2="318.78"/><line class="cls-2" x1="110.95" y1="318.78" x2="110.95" y2="318.78"/><line class="cls-2" x1="48.4" y1="338.64" x2="86.84" y2="377.09"/><line class="cls-2" x1="164.67" y1="570.79" x2="164.67" y2="570.79"/><line class="cls-2" x1="48.16" y1="609.44" x2="56.95" y2="609.44"/><line class="cls-2" x1="83.21" y1="590.01" x2="100.78" y2="590.01"/><line class="cls-2" x1="64.12" y1="570.57" x2="81.69" y2="570.57"/><line class="cls-2" x1="-0.44" y1="609.44" x2="32.82" y2="609.44"/><line class="cls-2" x1="17.62" y1="590.01" x2="63.3" y2="590.01"/><line class="cls-2" x1="100.78" y1="570.57" x2="146.46" y2="570.57"/><line class="cls-2" x1="37.86" y1="590.01" x2="-14.73" y2="590.01"/><line class="cls-2" x1="4.68" y1="570.57" x2="-48.62" y2="570.57"/><line class="cls-2" x1="69.63" y1="570.57" x2="26.07" y2="570.57"/><path class="cls-2" d="M33.55,628.88a19.44,19.44,0,0,0-19.44-19.44"/><line class="cls-2" x1="23.83" y1="551.57" x2="62.28" y2="590.01"/><line class="cls-2" x1="-22.58" y1="377.09" x2="33.27" y2="377.09"/><line class="cls-2" x1="107.18" y1="377.09" x2="-6.31" y2="377.09"/><line class="cls-2" x1="-44.16" y1="357.65" x2="39.4" y2="357.65"/><line class="cls-2" x1="140.41" y1="435.07" x2="209.4" y2="435.07"/><line class="cls-2" x1="140.41" y1="435.07" x2="163.47" y2="435.07"/><line class="cls-2" x1="167.1" y1="473.95" x2="190.16" y2="473.95"/><line class="cls-2" x1="114.25" y1="454.51" x2="157.88" y2="454.51"/><line class="cls-2" x1="59.35" y1="396.2" x2="22.47" y2="396.2"/><line class="cls-2" x1="120.44" y1="454.51" x2="51.45" y2="454.51"/><line class="cls-2" x1="23.83" y1="454.51" x2="-97.94" y2="454.51"/><line class="cls-2" x1="159.04" y1="415.64" x2="37.27" y2="415.64"/><line class="cls-2" x1="22.47" y1="396.2" x2="-35.68" y2="396.2"/><line class="cls-2" x1="89.12" y1="473.95" x2="5.18" y2="473.95"/><line class="cls-2" x1="174.33" y1="473.95" x2="117.18" y2="473.95"/><line class="cls-2" x1="47.22" y1="473.95" x2="47.22" y2="473.95"/><line class="cls-2" x1="37.89" y1="415.64" x2="4.82" y2="415.64"/><line class="cls-2" x1="5.26" y1="415.64" x2="5.26" y2="415.64"/><line class="cls-2" x1="95.57" y1="435.07" x2="-37.09" y2="435.07"/><line class="cls-2" x1="26.03" y1="435.07" x2="-88.26" y2="435.07"/><line class="cls-2" x1="117.18" y1="435.07" x2="117.18" y2="435.07"/><line class="cls-2" x1="50.4" y1="454.94" x2="88.85" y2="493.38"/><line class="cls-2" x1="94.59" y1="628.89" x2="112.17" y2="628.89"/><line class="cls-2" x1="249.9" y1="628.89" x2="267.47" y2="628.89"/><line class="cls-2" x1="148.66" y1="628.89" x2="179.36" y2="628.89"/><line class="cls-2" x1="162.14" y1="628.89" x2="214.73" y2="628.89"/><line class="cls-2" x1="111.83" y1="628.89" x2="111.83" y2="628.89"/><line class="cls-2" x1="130.4" y1="628.89" x2="130.4" y2="628.89"/><line class="cls-2" x1="50.63" y1="609.45" x2="149.84" y2="609.45"/><line class="cls-2" x1="103.63" y1="609.45" x2="248.77" y2="609.45"/><line class="cls-2" x1="232.78" y1="628.89" x2="232.78" y2="628.89"/><line class="cls-2" x1="130.4" y1="628.89" x2="149.84" y2="609.45"/><line class="cls-2" x1="141.86" y1="648.52" x2="208.35" y2="648.52"/><line class="cls-2" x1="55.06" y1="648.52" x2="123.9" y2="648.52"/><line class="cls-2" x1="105.31" y1="648.52" x2="122.89" y2="648.52"/><line class="cls-2" x1="264.69" y1="648.52" x2="167.45" y2="648.52"/><line class="cls-2" x1="-28.19" y1="512.6" x2="38.3" y2="512.6"/><line class="cls-2" x1="94.64" y1="512.6" x2="-2.6" y2="512.6"/><line class="cls-2" x1="4.83" y1="532.13" x2="4.83" y2="532.13"/><line class="cls-2" x1="102.44" y1="493.38" x2="67.62" y2="493.38"/><line class="cls-2" x1="132.82" y1="551.57" x2="-12.32" y2="551.57"/><line class="cls-2" x1="106.56" y1="280.33" x2="53.98" y2="280.33"/><line class="cls-2" x1="185.56" y1="280.33" x2="92.75" y2="280.33"/><line class="cls-2" x1="5.34" y1="280.33" x2="-40.34" y2="280.33"/><line class="cls-2" x1="86.9" y1="260.9" x2="41.22" y2="260.9"/><line class="cls-2" x1="-14.9" y1="280.33" x2="37.69" y2="280.33"/><line class="cls-2" x1="18.28" y1="299.77" x2="71.58" y2="299.77"/><line class="cls-2" x1="-46.66" y1="299.77" x2="-3.1" y2="299.77"/><line class="cls-2" x1="88.28" y1="299.77" x2="88.28" y2="299.77"/><line class="cls-2" x1="50.22" y1="299.77" x2="50.22" y2="299.77"/><path class="cls-2" d="M73.78,260.9a19.44,19.44,0,0,1-19.44,19.44"/><line class="cls-2" x1="-0.87" y1="318.78" x2="-39.31" y2="280.33"/><line class="cls-2" x1="145.11" y1="299.77" x2="108.23" y2="299.77"/><line class="cls-2" x1="188.33" y1="299.77" x2="129.22" y2="299.77"/><line class="cls-2" x1="-25.89" y1="493.38" x2="33.22" y2="493.38"/></g><g id="top_right" data-name="top right" class="cls-1"><line class="cls-2" x1="167.96" y1="83.57" x2="115.38" y2="83.57"/><line class="cls-2" x1="141.67" y1="83.57" x2="48.86" y2="83.57"/><line class="cls-2" x1="130.26" y1="103" x2="76.96" y2="103"/><line class="cls-2" x1="233.39" y1="103" x2="180.09" y2="103"/><line class="cls-2" x1="159.53" y1="103" x2="115.97" y2="103"/><line class="cls-2" x1="187.56" y1="83.57" x2="205.13" y2="83.57"/><line class="cls-2" x1="62.8" y1="122.01" x2="10.22" y2="122.01"/><line class="cls-2" x1="103.34" y1="199.74" x2="50.75" y2="199.74"/><line class="cls-2" x1="62.8" y1="122.01" x2="45.23" y2="122.01"/><line class="cls-2" x1="96.98" y1="122.01" x2="198.09" y2="122.01"/><line class="cls-2" x1="-35.94" y1="200.18" x2="65.18" y2="200.18"/><line class="cls-2" x1="80.51" y1="122.01" x2="80.51" y2="122.01"/><path class="cls-2" d="M152.59,102.57A19.44,19.44,0,0,0,172,122"/><line class="cls-2" x1="54.67" y1="102.79" x2="54.67" y2="102.79"/><line class="cls-2" x1="-9.22" y1="102.57" x2="36.46" y2="102.57"/><line class="cls-2" x1="189.03" y1="6.16" x2="189.03" y2="6.16"/><line class="cls-2" x1="57.1" y1="5.95" x2="80.16" y2="5.95"/><line class="cls-2" x1="105.21" y1="5.95" x2="165.14" y2="5.95"/><line class="cls-2" x1="64.33" y1="5.95" x2="7.18" y2="5.95"/><line class="cls-2" x1="249.91" y1="160.89" x2="249.91" y2="160.89"/><line class="cls-2" x1="201.68" y1="160.89" x2="201.68" y2="160.89"/><line class="cls-2" x1="-15.41" y1="160.89" x2="2.17" y2="160.89"/><line class="cls-2" x1="139.9" y1="160.89" x2="157.47" y2="160.89"/><line class="cls-2" x1="206.08" y1="141.45" x2="214.86" y2="141.45"/><line class="cls-2" x1="38.66" y1="160.89" x2="69.36" y2="160.89"/><line class="cls-2" x1="52.14" y1="160.89" x2="104.73" y2="160.89"/><line class="cls-2" x1="1.83" y1="160.89" x2="1.83" y2="160.89"/><line class="cls-2" x1="20.4" y1="160.89" x2="20.4" y2="160.89"/><line class="cls-2" x1="-59.37" y1="141.45" x2="39.84" y2="141.45"/><line class="cls-2" x1="157.47" y1="141.45" x2="190.73" y2="141.45"/><line class="cls-2" x1="-6.37" y1="141.45" x2="138.77" y2="141.45"/><line class="cls-2" x1="122.78" y1="160.89" x2="122.78" y2="160.89"/><line class="cls-2" x1="235.71" y1="160.89" x2="176.6" y2="160.89"/><path class="cls-2" d="M191.46,160.89A19.44,19.44,0,0,0,172,141.45"/><path class="cls-2" d="M107.09,141.45A19.44,19.44,0,0,1,126.53,122"/><line class="cls-2" x1="20.4" y1="160.89" x2="39.84" y2="141.45"/><line class="cls-2" x1="173.67" y1="180.52" x2="173.67" y2="180.52"/><line class="cls-2" x1="31.86" y1="180.52" x2="98.35" y2="180.52"/><line class="cls-2" x1="-54.94" y1="180.52" x2="13.9" y2="180.52"/><line class="cls-2" x1="-4.69" y1="180.52" x2="12.89" y2="180.52"/><line class="cls-2" x1="154.69" y1="180.52" x2="57.45" y2="180.52"/><line class="cls-2" x1="104.17" y1="161.3" x2="65.73" y2="199.74"/><line class="cls-2" x1="22.82" y1="83.57" x2="-122.32" y2="83.57"/></g><g id="bottom_left" data-name="bottom left" class="cls-1"><line class="cls-2" x1="1411.07" y1="745.02" x2="1342.08" y2="745.02"/><line class="cls-2" x1="1436.85" y1="570.01" x2="1366.92" y2="570.01"/><line class="cls-2" x1="1347.8" y1="647.84" x2="1347.8" y2="647.84"/><line class="cls-2" x1="1291.23" y1="550.46" x2="1291.23" y2="550.46"/><line class="cls-2" x1="1376.57" y1="725.59" x2="1376.57" y2="725.59"/><line class="cls-2" x1="1252.45" y1="705.93" x2="1252.45" y2="705.93"/><line class="cls-2" x1="1318.75" y1="745.02" x2="1318.75" y2="745.02"/><line class="cls-2" x1="1394.05" y1="550.57" x2="1394.05" y2="550.57"/><line class="cls-2" x1="1305.78" y1="550.46" x2="1305.78" y2="550.46"/><line class="cls-2" x1="1469.07" y1="589.44" x2="1469.07" y2="589.44"/><line class="cls-2" x1="1411.07" y1="647.84" x2="1411.07" y2="647.84"/><line class="cls-2" x1="1492.13" y1="647.84" x2="1469.07" y2="647.84"/><line class="cls-2" x1="1405.3" y1="667.28" x2="1393.78" y2="667.28"/><line class="cls-2" x1="1359.33" y1="686.71" x2="1336.27" y2="686.71"/><line class="cls-2" x1="1411.07" y1="745.02" x2="1388.01" y2="745.02"/><line class="cls-2" x1="1384.38" y1="706.15" x2="1361.32" y2="706.15"/><line class="cls-2" x1="1469.07" y1="667.28" x2="1425.44" y2="667.28"/><line class="cls-2" x1="1437.23" y1="725.59" x2="1393.59" y2="725.59"/><line class="cls-2" x1="1445.37" y1="686.71" x2="1385.44" y2="686.71"/><line class="cls-2" x1="1336.27" y1="706.15" x2="1276.34" y2="706.15"/><line class="cls-2" x1="1321.19" y1="628.19" x2="1261.26" y2="628.19"/><line class="cls-2" x1="1492.13" y1="783.9" x2="1529" y2="783.9"/><line class="cls-2" x1="1684.04" y1="667.28" x2="1493.61" y2="667.28"/><line class="cls-2" x1="1431.04" y1="725.59" x2="1500.03" y2="725.59"/><line class="cls-2" x1="1394.05" y1="589.33" x2="1447.25" y2="589.33"/><line class="cls-2" x1="1418.83" y1="686.71" x2="1487.82" y2="686.71"/><line class="cls-2" x1="1392.44" y1="764.46" x2="1514.2" y2="764.46"/><line class="cls-2" x1="1298.13" y1="589.44" x2="1321.19" y2="589.44"/><line class="cls-2" x1="1375.66" y1="589.44" x2="1298.13" y2="589.44"/><line class="cls-2" x1="1346.32" y1="608.88" x2="1277.33" y2="608.88"/><line class="cls-2" x1="1305.78" y1="608.99" x2="1246.9" y2="608.99"/><line class="cls-2" x1="1379.44" y1="550.57" x2="1320.57" y2="550.57"/><line class="cls-2" x1="1368.21" y1="608.88" x2="1390.68" y2="608.88"/><line class="cls-2" x1="1462.36" y1="706.15" x2="1532.29" y2="706.15"/><line class="cls-2" x1="1377.15" y1="706.15" x2="1434.3" y2="706.15"/><line class="cls-2" x1="1366.42" y1="647.84" x2="1443.98" y2="647.84"/><line class="cls-2" x1="1349.23" y1="628.31" x2="1426.79" y2="628.31"/><line class="cls-2" x1="1504.26" y1="706.15" x2="1504.26" y2="706.15"/><line class="cls-2" x1="1535.17" y1="531.02" x2="1442.38" y2="531.02"/><line class="cls-2" x1="1488.92" y1="608.88" x2="1390.68" y2="608.88"/><line class="cls-2" x1="1470.41" y1="531.02" x2="1470.41" y2="531.02"/><line class="cls-2" x1="1279.99" y1="570.01" x2="1337.69" y2="570.01"/><line class="cls-2" x1="1309.67" y1="570.01" x2="1309.67" y2="570.01"/><line class="cls-2" x1="1431.29" y1="569.9" x2="1500.28" y2="569.9"/><line class="cls-2" x1="1465.78" y1="569.9" x2="1587.55" y2="569.9"/><line class="cls-2" x1="1405.58" y1="569.9" x2="1382.52" y2="569.9"/><line class="cls-2" x1="1444.12" y1="550.46" x2="1413.24" y2="550.46"/><line class="cls-2" x1="1567.63" y1="550.46" x2="1469.34" y2="550.46"/><line class="cls-2" x1="1455.9" y1="745.02" x2="1588.57" y2="745.02"/><line class="cls-2" x1="1434.3" y1="745.02" x2="1434.3" y2="745.02"/><line class="cls-2" x1="1469.34" y1="589.44" x2="1449.91" y2="608.88"/><line class="cls-2" x1="1452.1" y1="570.01" x2="1432.66" y2="550.57"/><line class="cls-2" x1="1482.12" y1="725.16" x2="1443.68" y2="686.71"/><line class="cls-2" x1="1447.82" y1="628.21" x2="1447.82" y2="628.21"/><line class="cls-2" x1="1494.06" y1="589.33" x2="1517.12" y2="589.33"/><line class="cls-2" x1="1572.21" y1="589.33" x2="1494.06" y2="589.33"/><line class="cls-2" x1="1472.73" y1="628.21" x2="1600.3" y2="628.21"/><line class="cls-2" x1="1393.1" y1="667.28" x2="1305.86" y2="667.28"/><line class="cls-2" x1="1231.95" y1="667.28" x2="1359.53" y2="667.28"/><line class="cls-2" x1="1520.01" y1="609.09" x2="1481.57" y2="647.54"/><line class="cls-2" x1="1126.59" y1="628.19" x2="1195.58" y2="628.19"/><line class="cls-2" x1="1221.08" y1="628.19" x2="1221.08" y2="628.19"/><line class="cls-2" x1="1314.51" y1="686.93" x2="1256.81" y2="686.93"/><line class="cls-2" x1="1244.14" y1="628.19" x2="1221.08" y2="628.19"/><line class="cls-2" x1="1332.72" y1="628.19" x2="1309.67" y2="628.19"/><line class="cls-2" x1="1221.08" y1="608.75" x2="1161.15" y2="608.75"/><line class="cls-2" x1="1135.38" y1="667.07" x2="1206.14" y2="667.07"/><line class="cls-2" x1="1206.59" y1="667.07" x2="1206.59" y2="667.07"/><line class="cls-2" x1="1182.22" y1="667.07" x2="1182.22" y2="667.07"/><line class="cls-2" x1="1324.15" y1="647.64" x2="1193.98" y2="647.64"/><line class="cls-2" x1="1254.61" y1="647.64" x2="1064.17" y2="647.64"/><line class="cls-2" x1="1158.9" y1="667.07" x2="1139.46" y2="647.64"/><line class="cls-2" x1="1281.07" y1="686.71" x2="1190.75" y2="686.71"/><line class="cls-2" x1="1215.14" y1="686.71" x2="1192.08" y2="686.71"/></g><g id="mid_left" data-name="mid left" class="cls-1"><line class="cls-2" x1="1317.97" y1="489.31" x2="1317.97" y2="489.31"/><line class="cls-2" x1="1397.16" y1="411.72" x2="1326.03" y2="411.72"/><line class="cls-2" x1="1322.57" y1="411.72" x2="1348.11" y2="411.72"/><line class="cls-2" x1="1428.38" y1="392.29" x2="1453.93" y2="392.29"/><line class="cls-2" x1="1468.41" y1="508.69" x2="1567.88" y2="508.69"/><line class="cls-2" x1="1402.51" y1="392.29" x2="1535.18" y2="392.29"/><line class="cls-2" x1="1381.5" y1="450.59" x2="1420.27" y2="489.36"/><line class="cls-2" x1="1236.61" y1="431.16" x2="1236.61" y2="431.16"/><line class="cls-2" x1="1410.88" y1="489.36" x2="1433.94" y2="489.36"/><line class="cls-2" x1="1366.22" y1="431.16" x2="1257.45" y2="431.16"/><line class="cls-2" x1="1566.49" y1="431.16" x2="1497.5" y2="431.16"/><line class="cls-2" x1="1469.88" y1="431.16" x2="1348.11" y2="431.16"/><line class="cls-2" x1="1404.74" y1="431.16" x2="1404.74" y2="431.16"/><line class="cls-2" x1="1338.05" y1="450.59" x2="1263.7" y2="450.59"/><line class="cls-2" x1="1526.76" y1="489.31" x2="1452.41" y2="489.31"/><line class="cls-2" x1="1541.62" y1="450.59" x2="1408.96" y2="450.59"/><line class="cls-2" x1="1472.08" y1="450.59" x2="1357.79" y2="450.59"/><path class="cls-2" d="M1438.59,431.16a19.44,19.44,0,0,1-19.44,19.44"/><path class="cls-2" d="M1341.81,411.72a38.87,38.87,0,0,1-38.87,38.87"/><line class="cls-2" x1="1496.46" y1="430.73" x2="1534.9" y2="392.29"/><line class="cls-2" x1="1379.57" y1="469.82" x2="1379.57" y2="469.82"/><line class="cls-2" x1="1448.95" y1="508.69" x2="1448.95" y2="508.69"/><line class="cls-2" x1="1548.32" y1="469.82" x2="1478.39" y2="469.82"/><line class="cls-2" x1="1404.48" y1="469.82" x2="1493.43" y2="469.82"/><line class="cls-2" x1="1334.12" y1="489.36" x2="1423.08" y2="489.36"/></g><g id="top_left" data-name="top left" class="cls-1"><line class="cls-2" x1="1354.22" y1="104.17" x2="1285.23" y2="104.17"/><line class="cls-2" x1="1624.98" y1="45.87" x2="1503.22" y2="45.87"/><line class="cls-2" x1="1552.74" y1="201.36" x2="1483.75" y2="201.36"/><line class="cls-2" x1="1290.95" y1="6.99" x2="1290.95" y2="6.99"/><line class="cls-2" x1="1319.73" y1="84.74" x2="1319.73" y2="84.74"/><line class="cls-2" x1="1354.22" y1="6.99" x2="1354.22" y2="6.99"/><line class="cls-2" x1="1435.28" y1="6.99" x2="1412.23" y2="6.99"/><line class="cls-2" x1="1348.46" y1="26.43" x2="1336.93" y2="26.43"/><line class="cls-2" x1="1302.48" y1="45.86" x2="1279.42" y2="45.86"/><line class="cls-2" x1="1354.22" y1="104.17" x2="1331.17" y2="104.17"/><line class="cls-2" x1="1327.53" y1="65.3" x2="1304.47" y2="65.3"/><line class="cls-2" x1="1550.42" y1="6.99" x2="1481.43" y2="6.99"/><line class="cls-2" x1="1412.23" y1="26.43" x2="1368.59" y2="26.43"/><line class="cls-2" x1="1380.38" y1="84.74" x2="1336.75" y2="84.74"/><line class="cls-2" x1="1388.53" y1="45.87" x2="1328.6" y2="45.87"/><line class="cls-2" x1="1435.28" y1="143.05" x2="1472.16" y2="143.05"/><line class="cls-2" x1="1627.19" y1="26.43" x2="1436.76" y2="26.43"/><line class="cls-2" x1="1457.74" y1="6.99" x2="1457.74" y2="6.99"/><line class="cls-2" x1="1374.19" y1="84.74" x2="1443.18" y2="84.74"/><line class="cls-2" x1="1361.98" y1="45.87" x2="1430.97" y2="45.87"/><line class="cls-2" x1="1435.31" y1="181.92" x2="1531.84" y2="181.92"/><line class="cls-2" x1="1470.81" y1="84.74" x2="1592.57" y2="84.74"/><line class="cls-2" x1="1335.59" y1="123.61" x2="1457.36" y2="123.61"/><line class="cls-2" x1="1491.54" y1="181.92" x2="1567.78" y2="181.92"/><line class="cls-2" x1="1472.16" y1="143.05" x2="1529.31" y2="143.05"/><line class="cls-2" x1="1405.51" y1="65.3" x2="1475.44" y2="65.3"/><line class="cls-2" x1="1320.3" y1="65.3" x2="1377.45" y2="65.3"/><line class="cls-2" x1="1309.58" y1="6.99" x2="1387.14" y2="6.99"/><line class="cls-2" x1="1472.16" y1="162.48" x2="1529.31" y2="162.48"/><line class="cls-2" x1="1497.34" y1="65.3" x2="1497.34" y2="65.3"/><line class="cls-2" x1="1447.41" y1="65.3" x2="1447.41" y2="65.3"/><line class="cls-2" x1="1456.74" y1="123.61" x2="1479.8" y2="123.61"/><line class="cls-2" x1="1479.36" y1="123.61" x2="1479.36" y2="123.61"/><line class="cls-2" x1="1503.72" y1="123.61" x2="1503.72" y2="123.61"/><line class="cls-2" x1="1412.93" y1="181.92" x2="1412.93" y2="181.92"/><line class="cls-2" x1="1399.06" y1="104.17" x2="1531.72" y2="104.17"/><line class="cls-2" x1="1468.6" y1="104.17" x2="1591.09" y2="104.17"/><line class="cls-2" x1="1377.45" y1="104.17" x2="1377.45" y2="104.17"/><path class="cls-2" d="M1502.09,84.74a19.44,19.44,0,0,0,19.44,19.44"/><path class="cls-2" d="M1457.71,7a19.44,19.44,0,0,0,19.44,19.44"/><line class="cls-2" x1="1492.83" y1="337.41" x2="1625.5" y2="337.41"/><line class="cls-2" x1="1425.28" y1="84.31" x2="1386.83" y2="45.87"/><line class="cls-2" x1="1336.25" y1="26.43" x2="1249.02" y2="26.43"/><line class="cls-2" x1="1463.17" y1="-31.75" x2="1424.72" y2="6.69"/></g><g id="blue-green"><g class="cls-3"><line class="cls-4" x1="-5.69" y1="551.95" x2="27.41" y2="551.95"/><line class="cls-5" x1="40.71" y1="551.95" x2="67.05" y2="551.95"/><line class="cls-5" x1="121.66" y1="571.67" x2="160.42" y2="571.67"/><line class="cls-6" x1="-3.06" y1="590.86" x2="49.66" y2="590.86"/><line class="cls-7" x1="52.28" y1="551.95" x2="67.05" y2="551.95"/><line class="cls-6" x1="16.18" y1="571.67" x2="102.96" y2="571.67"/><line class="cls-8" x1="135.05" y1="590.86" x2="180.18" y2="590.86"/><line class="cls-8" x1="-2.77" y1="610.26" x2="30.96" y2="610.26"/><line class="cls-5" x1="47.01" y1="610.26" x2="92.75" y2="610.26"/><line class="cls-4" x1="71.2" y1="590.86" x2="146.89" y2="590.86"/><line class="cls-4" x1="107.08" y1="610.26" x2="107.08" y2="610.26"/><line class="cls-9" x1="74.42" y1="610.26" x2="74.42" y2="610.26"/><line class="cls-10" x1="27.41" y1="551.95" x2="27.41" y2="551.95"/><line class="cls-11" x1="109.85" y1="590.86" x2="109.85" y2="590.86"/><line class="cls-12" x1="39.67" y1="571.67" x2="102.95" y2="571.67"/><line class="cls-7" x1="47.01" y1="610.26" x2="57.35" y2="610.26"/><line class="cls-13" x1="146.89" y1="590.86" x2="135.05" y2="590.86"/></g></g><g id="Layer_12" data-name="Layer 12" class="cls-3"><line class="cls-14" x1="73.18" y1="83.23" x2="109.7" y2="83.23"/><line class="cls-15" x1="62.48" y1="141.44" x2="114.73" y2="141.44"/><line class="cls-16" x1="-31.51" y1="141.44" x2="20.31" y2="141.44"/><line class="cls-17" x1="72.01" y1="102.56" x2="166.27" y2="102.56"/><line class="cls-18" x1="3.39" y1="122" x2="158.41" y2="122"/><line class="cls-19" x1="173.49" y1="122" x2="173.49" y2="122"/><line class="cls-18" x1="41.77" y1="141.44" x2="41.77" y2="141.44"/><line class="cls-20" x1="62.48" y1="141.44" x2="62.48" y2="141.44"/><line class="cls-21" x1="58.56" y1="83.23" x2="58.56" y2="83.23"/><line class="cls-15" x1="-11.92" y1="102.56" x2="83.99" y2="102.56"/><line class="cls-15" x1="98.77" y1="83.23" x2="161.32" y2="83.23"/><path class="cls-17" d="M24,102.62A19.38,19.38,0,0,1,43.43,83.23"/><path class="cls-20" d="M139.3,83.23A38.77,38.77,0,0,1,100.53,122"/><path class="cls-22" d="M48.34,102.56a38.87,38.87,0,0,1,38.87,38.87"/><line class="cls-20" x1="43.43" y1="83.23" x2="43.43" y2="83.23"/><line class="cls-15" x1="106.46" y1="122" x2="158.7" y2="122"/></g><g id="Layer_5" data-name="Layer 5" class="cls-3"><line class="cls-23" x1="1380.22" y1="608.45" x2="1424.6" y2="608.45"/><line class="cls-23" x1="1380.81" y1="627.89" x2="1340.65" y2="627.89"/><line class="cls-24" x1="1503.62" y1="627.89" x2="1448.74" y2="627.89"/><line class="cls-25" x1="1413.6" y1="627.89" x2="1413.6" y2="627.89"/><line class="cls-24" x1="1398.33" y1="627.89" x2="1398.33" y2="627.89"/><line class="cls-25" x1="1347.49" y1="608.45" x2="1403.68" y2="608.45"/><line class="cls-23" x1="1441.74" y1="608.45" x2="1487.23" y2="608.45"/><line class="cls-26" x1="1431.03" y1="627.89" x2="1455.92" y2="627.89"/><line class="cls-25" x1="1490.21" y1="627.89" x2="1470.78" y2="608.45"/><line class="cls-24" x1="1396.57" y1="589.02" x2="1357.69" y2="627.89"/><line class="cls-26" x1="1383.72" y1="589.02" x2="1458.37" y2="589.02"/><line class="cls-24" x1="1312.21" y1="589.02" x2="1312.21" y2="589.02"/><line class="cls-23" x1="1363.52" y1="589.02" x2="1332.21" y2="589.02"/><line class="cls-25" x1="1383.72" y1="589.02" x2="1400.6" y2="589.02"/><line class="cls-24" x1="1455.16" y1="608.45" x2="1441.74" y2="608.45"/></g></svg>