<svg id="Layer_1" data-name="Layer 1" xmlns="http://www.w3.org/2000/svg" viewBox="0 0 2204.89 980.26"><defs><style>.cls-1{opacity:.1}.cls-11,.cls-12,.cls-13,.cls-14,.cls-2,.cls-4,.cls-5,.cls-6,.cls-7,.cls-8,.cls-9{fill:none;stroke-linecap:round;stroke-miterlimit:10;stroke-width:9px}.cls-2{stroke:#000}.cls-3{opacity:.5}.cls-4{stroke:#45378d}.cls-5{stroke:#6450aa}.cls-6{stroke:#224cc3}.cls-7{stroke:#0078dc}.cls-8{stroke:#00ade0}.cls-9{stroke:#00759f}.cls-10{fill:#252c34}.cls-11{stroke:#ee4651}.cls-12{stroke:#ef6897}.cls-13{stroke:#faac18}.cls-14{stroke:#0084bf}</style></defs><title>home-code-bg-alt-03</title><g id="mid_right" data-name="mid right" class="cls-1"><path class="cls-2" d="M1695.72 569.13h52.58M1722.01 569.13h92.81M1733.42 588.56h53.3M1630.3 588.56h53.3M1704.15 588.56h43.56M1676.13 569.13h-17.58M1800.88 607.57h52.58M1760.35 685.3h52.58M1800.88 607.57h17.57M1766.71 607.57h-101.12M1899.62 685.74H1798.5M1783.17 607.57"/><path class="cls-2" d="M1220.74 570.57A19.44 19.44 0 0 1 1201.3 590" transform="translate(490.35 17.56)"/><path class="cls-2" d="M1952.87 666.3h44.75M1974.74 685.74h17.57M2034.31 685.74h-59.57M2020.81 666.3h-32.6M2033.27 646.87h-92.81M2077.39 510.94h-92.81M1933.44 666.3h-43.98M1839.51 336.34h-68.99M1839.51 336.34h-23.06M1865.66 355.77h-43.63M1859.47 355.77h68.99M1956.09 355.77h121.77M1884.34 336.34h132.67M1953.88 336.34h122.49M1862.74 336.34"/><path class="cls-2" d="M1497 338.21a19.44 19.44 0 0 1 19.44-19.44" transform="translate(490.35 17.56)"/><path class="cls-2" d="M1925.28 356.2l-38.44 38.45M1925.52 627h-8.79M1890.47 607.57h-17.57M1909.57 588.13h-17.58M1974.12 627h-33.26M1956.06 607.57h-45.68M1872.9 588.13h-45.68M2137.96 627h-145.14M1935.82 607.57h52.59M1969 588.13h53.3M1904.06 588.13h43.56"/><path class="cls-2" d="M1449.78 628.88a19.44 19.44 0 0 1 19.44-19.44" transform="translate(490.35 17.56)"/><path class="cls-2" d="M1949.85 569.13l-38.45 38.44M1996.26 394.65h-55.85M1866.5 394.65h113.49M2017.84 375.21h-83.56M1833.27 452.63h-68.99M1833.27 452.63h-23.05M1806.58 491.51h-23.06M1859.43 472.07h-43.63M1758.48 491.51h-59.93M1914.33 413.76h36.88M1853.24 472.07h68.99M1949.86 472.07h121.76M1814.64 433.2h121.77M1951.21 413.76h58.15M1884.56 491.51h83.94M1799.35 491.51h57.15M1935.8 433.2h33.06M1983.97 413.76h23.06M1878.11 452.63h132.66M1947.65 452.63h114.3M1856.5 452.63"/><path class="cls-2" d="M1490.79 454.51a19.44 19.44 0 0 1 19.44-19.44" transform="translate(490.35 17.56)"/><path class="cls-2" d="M1923.28 472.5l-38.44 38.44M1879.09 646.45h-17.58M1723.78 646.45h-17.57M1657.6 627.01h-8.78M1825.03 646.45h-30.71M1811.54 646.45h-52.59M1923.06 627.01h-99.22M1706.21 627.01h-33.26M1870.05 627.01h-145.14M1627.97 646.45h59.12"/><path class="cls-2" d="M1181.87 628.89a19.44 19.44 0 0 1 19.44-19.44M1266.24 609.45a19.44 19.44 0 0 0-19.43-19.45" transform="translate(490.35 17.56)"/><path class="cls-2" d="M1843.28 646.45l-19.44-19.44M1831.82 666.08h-66.49M1918.62 666.08h-68.84M1868.37 666.08h-17.57M1708.99 666.08h97.24M2001.87 530.16h-66.49M1879.05 530.16h97.23M1759.51 646.86l38.44 38.44M1987.13 549.69h17.58M1871.24 510.94h34.82M1840.86 569.13h145.15M1867.12 297.89h52.59M1788.12 297.89h92.81M1968.34 297.89h45.68M1886.78 278.46h45.68M1988.58 297.89h-52.59M1955.4 317.33h-53.3M2020.34 317.33h-43.56M1923.46 317.33"/><path class="cls-2" d="M1409.55 260.9a19.44 19.44 0 0 0 19.45 19.43" transform="translate(490.35 17.56)"/><path class="cls-2" d="M1974.55 336.34l38.45-38.45M1828.57 317.33h36.88M1785.35 317.33h59.11M1999.58 510.94h-59.12"/></g><g id="top_right" data-name="top right" class="cls-1"><path class="cls-2" d="M1805.72 101.13h52.58M1832.01 101.13h92.81M1843.42 120.56h53.3M1740.3 120.56h53.3M1814.15 120.56h43.56M1786.13 101.13h-17.58M1910.88 139.57h52.58M1870.35 217.3h52.58M1910.88 139.57h17.57M1876.71 139.57h-101.12M2009.62 217.74H1908.5M1893.17 139.57"/><path class="cls-2" d="M1330.74 102.57A19.44 19.44 0 0 1 1311.3 122" transform="translate(490.35 17.56)"/><path class="cls-2" d="M2000.47 139.57h-17.57M1982.9 120.13h-45.68M1916.58 23.51h-23.06M1868.48 23.51h-59.93M1994.56 23.51h83.94M1909.35 23.51h57.15M2033.28 4.5l-38.44 38.44M1989.09 178.45h-17.58M1833.78 178.45h-17.57M1767.6 159.01h-8.78M1935.03 178.45h-30.71M1921.54 178.45h-52.59M2033.06 159.01h-99.22M1816.21 159.01h-33.26M1980.05 159.01h-145.14M1737.97 178.45h59.12"/><path class="cls-2" d="M1291.87 160.89a19.44 19.44 0 0 1 19.44-19.44M1376.24 141.45a19.44 19.44 0 0 0-19.43-19.45" transform="translate(490.35 17.56)"/><path class="cls-2" d="M1953.28 178.45l-19.44-19.44M1941.82 198.08h-66.49M2028.62 198.08h-68.84M1978.37 198.08h-17.57M1818.99 198.08h97.24M1989.05 62.16h97.23M1869.51 178.86l38.44 38.44M1981.24 42.94h34.82M1950.86 101.13h145.15"/></g><g id="bottom_left" data-name="bottom left" class="cls-1"><path class="cls-2" d="M555.51 820.27h68.99M722.61 878.58h68.99M417.36 820.27h68.99M451.85 820.27h121.77M466.82 839.71h69.93M696.84 703.57h69.93M641.55 781.4h23.06M728.38 800.84h11.53M774.35 820.27h23.06M722.61 878.58h23.06M749.31 839.71h23.05M508.72 781.4H549M526.42 781.4h68.99M380.1 800.84h130.17M664.61 800.84h43.64M696.46 859.15h43.63M688.31 820.27h59.93M797.41 839.71h59.93M812.49 761.75h59.93M641.55 917.46h-36.87M449.65 800.84h190.43M502.38 859.15H393.6M702.65 859.15h-68.99M739.63 722.89h-53.2M714.86 820.27h-68.99M606.03 859.15H484.27M741.24 898.02H619.48M835.55 723h-23.06M758.02 723h77.53M787.36 742.44h68.99M827.9 742.55h58.88M754.24 684.13h58.87M765.47 742.44H743M523.96 917.46h-69.93M604.68 917.46h-57.15M496.39 936.89H427.4M549.2 936.89h-70.92M671.33 839.71H601.4M756.53 839.71h-57.15M767.26 781.4H689.7M784.45 761.87h-77.56M604.68 936.89h-57.15M516.26 664.58h-23.05M598.51 664.58h92.79M644.76 742.44H743M509.04 664.58h57.15M853.69 703.57h-57.7M620.09 898.02h-23.06M564.24 703.46h-68.99M702.39 703.46H633.4M667.9 703.46H546.13M728.1 703.46h23.06M571.92 917.46h-23.06M549.16 898.02h-40.28M380.12 917.46H507.7M531.47 898.02h-98.29M452.15 684.02h48.33M548.36 684.02h40.28M689.56 684.02h30.88M566.05 684.02h98.29M677.78 878.58H545.11M608.24 878.58H485.75M699.38 878.58"/><path class="cls-2" d="M84.4 841.59A19.44 19.44 0 0 1 65 861M128.78 763.84a19.44 19.44 0 0 1-19.44 19.44M54.13 647a19.44 19.44 0 0 1-19.44 19.44M5.9 919.33a38.87 38.87 0 0 1 38.87 38.87M34.69 783.28a19.44 19.44 0 0 0 19.44 19.44" transform="translate(490.35 17.56)"/><path class="cls-2" d="M664.34 723l19.44 19.44M681.58 703.57l19.44-19.44M651.56 858.72L690 820.27M639.62 722.89h-23.05M382.15 722.89h113.93M561.47 722.89h78.15M455.78 722.89h76.24M499.81 761.77h87.23M544.68 742.33h68.99M528.86 742.33h33.93M396.41 742.33h97.14M660.95 761.77H533.38M740.58 800.84h87.24M901.73 800.84H774.16M526.42 780.99l-38.45-38.44M613.67 742.65l38.44 38.45M1007.09 761.75H938.1M819.17 820.49h57.7M889.54 761.75h23.06M800.96 761.75h23.06M912.6 742.31h59.93M998.31 800.63h-70.77M809.54 781.2H939.7M879.08 781.2h190.43M974.79 800.63l19.43-19.43M852.61 820.27h90.32M918.54 820.27h23.06"/></g><g id="mid_left" data-name="mid left" class="cls-1"><path class="cls-2" d="M736.52 545.28h71.13M811.12 545.28h-25.55M705.3 525.85h-25.55M665.27 642.25H565.8M731.17 525.85H598.5M752.18 584.15l-38.77 38.77M547.22 584.15h-68.99M547.22 584.15h-23.06M722.8 622.92h-23.05M573.38 564.72h-43.63M767.46 564.72h108.78M567.19 564.72h68.99M663.8 564.72h121.77M795.63 584.15h74.36M606.92 622.87h74.35M592.06 584.15h132.66M661.6 584.15h114.3M570.45 584.15"/><path class="cls-2" d="M204.74 547.16a19.44 19.44 0 0 0 19.44 19.44M301.52 527.72a38.87 38.87 0 0 0 38.87 38.87" transform="translate(490.35 17.56)"/><path class="cls-2" d="M637.23 564.29l-38.45-38.44"/><path class="cls-2" d="M115.47 586a19.44 19.44 0 0 0 19.44-19.44" transform="translate(490.35 17.56)"/><path class="cls-2" d="M591.67 642.25l-38.77-38.77M467.77 603.38h36.88M585.36 603.38h69.93M504.65 603.38h58.15M537.41 603.38h23.06M729.21 603.38h-88.96M799.56 622.92h-88.95"/></g><g id="top_left" data-name="top left" class="cls-1"><path class="cls-2" d="M559.46 237.73h68.99M533.68 62.72h69.93M478.4 140.55h23.06M565.22 159.99h11.53M611.2 179.42h23.06M559.46 237.73h23.06M586.15 198.86h23.06M360.51 432.1h132.67M501.46 159.99h43.63M533.3 218.3h43.64M525.15 179.43h59.93M634.26 198.86h59.93M649.33 120.9h59.93M539.49 218.3H470.5M576.47 82.05h-53.2M551.7 179.42h-68.99M578.09 257.17H456.32M672.4 82.15h-23.06M594.87 82.15h77.53M624.2 101.59h69M664.75 101.7h58.88M591.08 43.28h58.88M602.32 101.59h-22.47M508.17 198.86h-69.93M593.38 198.86h-57.15M604.1 140.55h-77.56M621.3 121.03h-77.56M435.36 23.74h92.78M481.61 101.59h98.24M690.54 62.72h-57.7M539.24 62.61h-68.99M504.74 62.61H382.98M564.95 62.61H588M526.41 43.17h30.88M402.9 43.17h98.28M514.62 237.73H381.96M640.85 470.97H508.18M501.18 82.15l19.44 19.44M518.43 62.72l19.43-19.44M488.41 217.87l38.44-38.44M523.93 470.76l-38.44-38.45M497.8 120.92H370.22M577.43 159.99h87.23M738.58 159.99H611M450.51 101.81l38.45 38.44M843.94 120.9h-68.99M656.01 179.64h57.7M726.39 120.9h23.05M637.8 120.9h23.06M749.44 101.47h59.93M835.15 159.78h-70.77M646.38 140.35h130.17M715.92 140.35h190.43M811.63 159.78l19.44-19.43M689.45 179.42h90.32M755.39 179.42h23.05"/></g><g class="cls-3"><path class="cls-4" d="M1774.63 568.54h-74.65"/><path class="cls-5" d="M1660.86 587.97h52.29"/><path class="cls-4" d="M1773.06 607.4"/><path class="cls-6" d="M1684.19 568.54"/><path class="cls-4" d="M1788.47 607.4"/><path class="cls-6" d="M1674.93 587.97l19.44 19.43"/><path class="cls-7" d="M1732.58 587.97h115.24"/><path class="cls-6" d="M1732.58 587.97h54.49M1679.51 607.4h79.65"/><path class="cls-7" d="M1679.51 607.4h31.31"/><path class="cls-6" d="M1816.24 568.54h-25.81"/><path class="cls-7" d="M1763.57 568.54l-19.43 19.43"/><path class="cls-5" d="M1801.46 568.54l19.44 19.43M1774.63 568.54h-16.88"/><path class="cls-7" d="M1855.63 607.62h134.35"/><path class="cls-8" d="M1829.4 607.62"/><path class="cls-4" d="M2130.94 607.62h-38.83M2200.39 627.05h-128.24"/><path class="cls-8" d="M2007.11 607.62h-73.64"/><path class="cls-9" d="M2092.11 607.62h-60.18"/><path class="cls-10" d="M1936.59 646.49h-60.18"/><path class="cls-7" d="M2086.81 627.05h-38.29"/><path class="cls-8" d="M2056.21 607.62h-24.28M1998.1 627.05h-42.42"/><path class="cls-9" d="M1849.4 627.05h-32.52M1979.47 627.05h-103.51"/><path class="cls-4" d="M2048.52 627.05"/><path class="cls-5" d="M2169.09 646.49h-139.7"/><path class="cls-7" d="M2095.86 646.49h-129"/><path class="cls-5" d="M2092.11 607.63"/><path class="cls-8" d="M1937.88 646.5h-81.23"/><path class="cls-4" d="M1831.21 646.5"/><path class="cls-5" d="M1889.21 646.5"/><path class="cls-9" d="M1937.88 646.5h-18.36"/><path class="cls-4" d="M1914.24 685.37h44.37M1914.83 665.93h-40.16"/><path class="cls-8" d="M2037.63 665.93h-54.87"/><path class="cls-4" d="M1947.62 665.93"/><path class="cls-5" d="M1932.35 665.93"/><path class="cls-8" d="M1881.51 685.37h56.18"/><path class="cls-9" d="M1975.75 685.37h45.5"/><path class="cls-4" d="M1965.04 665.93h24.9M1941.89 510.44h74.65"/><path class="cls-9" d="M1870.39 510.44"/><path class="cls-8" d="M1921.7 510.44h-31.32"/><path class="cls-9" d="M1941.89 510.44h16.89"/><path class="cls-7" d="M1989.18 685.37h-13.43"/><path class="cls-8" d="M1955.73 549.44h-45.64"/><path class="cls-7" d="M2079.97 549.44h-102.21"/><path class="cls-8" d="M2052.31 549.44h-74.54"/><path class="cls-7" d="M1849.21 530.06h90.29"/><path class="cls-8" d="M1831.58 530.06"/><path class="cls-4" d="M1883.57 549.31h-46.03M1951.01 530.06h-49.49"/><path class="cls-9" d="M1837.54 549.31h-71.35"/><path class="cls-8" d="M1794.97 549.31h-28.78"/><path class="cls-5" d="M1837.54 549.32"/><path class="cls-9" d="M1844.5 568.72h155.02M2014.6 568.72"/><path class="cls-4" d="M1947.57 568.72h52.24M1935.72 587.99h-48.33M1838.38 587.99h25.42"/><path class="cls-9" d="M1949.29 587.99h35.57"/><path class="cls-8" d="M2026.56 587.99h-52.03"/><path class="cls-7" d="M2083.48 588.2h-28.86"/><path class="cls-5" d="M2054.44 588.2"/><path class="cls-9" d="M2041.98 588.2"/><path class="cls-5" d="M1891.58 587.99h-10.38"/><path class="cls-4" d="M1968.06 627.06l19.43 19.43"/><path class="cls-7" d="M1918 529.88l19.43 19.43M2015.05 587.97l-19.43 19.43"/><path class="cls-5" d="M1927.06 588.19l-38.87 38.87"/></g><g class="cls-3"><path class="cls-7" d="M891 800.7h44.38M891.59 781.26h-40.16"/><path class="cls-6" d="M1014.4 781.26h-54.88"/><path class="cls-5" d="M924.38 781.26"/><path class="cls-6" d="M909.11 781.26"/><path class="cls-5" d="M858.27 800.7h56.18"/><path class="cls-7" d="M952.51 800.7h45.5"/><path class="cls-4" d="M941.8 781.26h24.9"/><path class="cls-5" d="M1000.99 781.26l-19.44 19.44M629 800.73l-19.44 19.44"/><path class="cls-7" d="M815.89 781.74l18.96 18.96"/><path class="cls-6" d="M907.35 820.13l-38.88-38.87"/><path class="cls-4" d="M839.15 820.13h74.66"/><path class="cls-6" d="M822.99 820.13"/><path class="cls-7" d="M842.68 800.7h-31.32"/><path class="cls-5" d="M839.15 820.13h16.89"/><path class="cls-6" d="M965.94 800.7h-13.43"/><path class="cls-4" d="M778.21 839.09h-90.29"/><path class="cls-7" d="M795.84 839.09"/><path class="cls-5" d="M562.29 820.14h78.1M546.51 781.04h86.18"/><path class="cls-7" d="M676.41 839.09h49.49M619.28 839.09h40.45"/><path class="cls-10" d="M723.8 800.21h40.45"/><path class="cls-6" d="M622.84 781.04h25.74"/><path class="cls-8" d="M643.41 839.09h16.32M682.46 819.65h28.51"/><path class="cls-7" d="M782.4 819.65h21.85M694.98 819.65h69.57"/><path class="cls-4" d="M567.54 800.21h93.9"/><path class="cls-6" d="M616.76 800.21h86.69"/><path class="cls-4" d="M640.39 820.13"/><path class="cls-8" d="M722.93 800.2h54.59"/><path class="cls-5" d="M794.62 800.2"/><path class="cls-4" d="M809.23 839.09"/><path class="cls-7" d="M722.93 800.2h12.34"/><path class="cls-5" d="M704.45 762.3h-44.37M796.92 781.74h40.16"/><path class="cls-8" d="M674.12 781.74h54.87"/><path class="cls-5" d="M764.13 781.74"/><path class="cls-4" d="M779.4 781.74"/><path class="cls-7" d="M737.19 762.3H681M642.94 762.3h-45.49"/><path class="cls-5" d="M746.71 781.74h-24.9M640.91 742.87h-74.65"/><path class="cls-7" d="M712.42 742.87"/><path class="cls-8" d="M661.11 742.87h31.31"/><path class="cls-7" d="M640.91 742.87h-16.89"/><path class="cls-4" d="M629.52 762.3h13.42M629.52 762.3l37.91 37.91"/><path class="cls-6" d="M715.14 839.57l39.36-39.37"/><path class="cls-5" d="M461.18 858.32h36.52"/><path class="cls-7" d="M496.64 800.12h52.24"/><path class="cls-4" d="M402.65 800.12h51.81"/><path class="cls-8" d="M501.47 838.99h94.27"/><path class="cls-9" d="M370.28 819.56H525.3M540.38 819.56"/><path class="cls-5" d="M475.92 800.12"/><path class="cls-4" d="M496.64 800.12"/><path class="cls-6" d="M446.56 858.32"/><path class="cls-9" d="M397.96 838.99"/><path class="cls-5" d="M417.55 838.99h95.91"/><path class="cls-8" d="M486.76 858.32h62.55"/><path class="cls-5" d="M431.42 858.32"/><path class="cls-8" d="M473.35 819.56h52.24M415.64 761.52h102.6M302.38 761.52h92.69"/><path class="cls-4" d="M351.96 761.52"/><path class="cls-8" d="M482.21 742.09h39.35"/><path class="cls-14" d="M406.09 742.09h39.34"/><path class="cls-9" d="M460.61 742.09h32.16M505.79 742.09"/><path class="cls-8" d="M580.94 878.23H477.43"/><path class="cls-9" d="M535.27 761.52h45.62"/><path class="cls-4" d="M390.54 878.23h54.44"/><path class="cls-14" d="M555.48 761.52h-52.51M554.55 742.09"/><path class="cls-6" d="M573.77 723.03h-41.51"/><path class="cls-9" d="M377.28 780.96h35.57"/><path class="cls-8" d="M454.55 780.96h-52.03"/><path class="cls-7" d="M370.24 723.08h55.66M511.47 781.16h-28.86"/><path class="cls-6" d="M482.43 781.16"/><path class="cls-9" d="M469.97 781.16"/><path class="cls-8" d="M429.63 723.08h87.12"/><path class="cls-4" d="M494.51 723.08h22.24"/><path class="cls-6" d="M486.4 878.23h-22.23"/><path class="cls-8" d="M447.98 761.82l37.91-37.91M449.15 819.99l37.91 37.9"/><path class="cls-6" d="M411.74 819.95l39.36-39.37"/><path class="cls-7" d="M511.84 819.99l-18.96 18.95M571.89 781.74l18.96 18.96"/></g><g class="cls-3"><path class="cls-7" d="M127.9 140.48H83.52M127.31 159.92h40.15"/><path class="cls-6" d="M4.5 159.92h54.88"/><path class="cls-5" d="M94.52 159.92"/><path class="cls-6" d="M109.79 159.92"/><path class="cls-5" d="M160.63 140.48h-56.19"/><path class="cls-7" d="M66.38 140.48H20.89"/><path class="cls-4" d="M77.09 159.92h-24.9"/><path class="cls-5" d="M17.91 159.92l19.43-19.44M389.9 140.45l19.44-19.44"/><path class="cls-7" d="M203 159.44l-18.95-18.96"/><path class="cls-6" d="M111.55 121.05l38.87 38.87"/><path class="cls-4" d="M179.74 121.05h-74.65"/><path class="cls-6" d="M195.91 121.05"/><path class="cls-7" d="M176.22 140.48h31.31"/><path class="cls-5" d="M179.74 121.05h-16.88"/><path class="cls-6" d="M52.96 140.48h13.42"/><path class="cls-4" d="M240.69 102.09h90.29"/><path class="cls-7" d="M223.06 102.09"/><path class="cls-5" d="M456.6 121.04h-78.1M472.38 160.14H386.2"/><path class="cls-7" d="M342.49 102.09H293M399.62 102.09h-40.45"/><path class="cls-10" d="M295.1 140.97h-40.45"/><path class="cls-6" d="M396.05 160.14h-25.73"/><path class="cls-8" d="M375.49 102.09h-16.32M336.44 121.53h-28.51"/><path class="cls-7" d="M236.5 121.53h-21.86M323.91 121.53h-69.56"/><path class="cls-4" d="M451.35 140.97h-93.89"/><path class="cls-6" d="M402.14 140.97h-86.7"/><path class="cls-4" d="M378.5 121.05"/><path class="cls-8" d="M295.96 140.98h-54.59"/><path class="cls-5" d="M224.27 140.98"/><path class="cls-4" d="M209.67 102.09"/><path class="cls-7" d="M295.96 140.98h-12.34"/><path class="cls-5" d="M314.44 178.88h44.38M221.97 159.44h-40.15"/><path class="cls-8" d="M344.78 159.44H289.9"/><path class="cls-5" d="M254.76 159.44"/><path class="cls-4" d="M239.49 159.44"/><path class="cls-7" d="M281.71 178.88h56.19M375.96 178.88h45.49"/><path class="cls-5" d="M272.19 159.44h24.9M377.98 198.31h74.66"/><path class="cls-7" d="M306.48 198.31"/><path class="cls-8" d="M357.79 198.31h-31.32"/><path class="cls-7" d="M377.98 198.31h16.89"/><path class="cls-4" d="M389.38 178.88h-13.42M389.38 178.88l-37.91-37.91"/><path class="cls-6" d="M303.76 101.61l-39.36 39.37"/><path class="cls-5" d="M557.72 82.86H521.2"/><path class="cls-7" d="M522.25 141.06h-52.24"/><path class="cls-4" d="M616.24 141.06h-51.81"/><path class="cls-8" d="M517.42 102.19h-94.26"/><path class="cls-9" d="M648.62 121.62H493.59M478.51 121.62"/><path class="cls-5" d="M542.97 141.06"/><path class="cls-4" d="M522.25 141.06"/><path class="cls-6" d="M572.34 82.86"/><path class="cls-9" d="M620.93 102.19"/><path class="cls-5" d="M601.35 102.19h-95.92"/><path class="cls-8" d="M532.13 82.86h-62.54"/><path class="cls-5" d="M587.47 82.86"/><path class="cls-8" d="M545.55 121.62h-52.24M603.26 179.66h-102.6M536.68 199.09h-39.34"/><path class="cls-9" d="M558.28 199.09h-32.15M513.11 199.09"/><path class="cls-8" d="M437.95 62.95h103.52"/><path class="cls-9" d="M483.62 179.66H438"/><path class="cls-4" d="M628.35 62.95h-54.43"/><path class="cls-14" d="M463.41 179.66h52.52M464.34 199.09"/><path class="cls-6" d="M445.12 218.15h41.52"/><path class="cls-9" d="M641.62 160.22h-35.58"/><path class="cls-8" d="M564.34 160.22h52.03"/><path class="cls-7" d="M648.65 218.1H593M507.42 160.02h28.86"/><path class="cls-6" d="M536.46 160.02"/><path class="cls-9" d="M548.92 160.02"/><path class="cls-8" d="M589.26 218.1h-87.11"/><path class="cls-4" d="M524.39 218.1h-22.24"/><path class="cls-6" d="M532.5 62.95h22.23"/><path class="cls-8" d="M570.91 179.36L533 217.27M569.74 121.19l-37.91-37.9"/><path class="cls-6" d="M607.16 121.23l-39.37 39.37"/><path class="cls-7" d="M507.06 121.19l18.95-18.95M447 159.44l-18.95-18.96"/></g><g class="cls-3"><path class="cls-4" d="M1925.16 139.56h-74.65"/><path class="cls-5" d="M1811.39 120.13h52.29"/><path class="cls-4" d="M1923.59 100.7"/><path class="cls-6" d="M1834.71 139.56"/><path class="cls-4" d="M1938.99 100.7"/><path class="cls-6" d="M1825.46 120.13l19.43-19.43"/><path class="cls-7" d="M1883.11 120.13h115.24"/><path class="cls-6" d="M1883.11 120.13h54.49M1830.04 100.7h79.64"/><path class="cls-7" d="M1830.04 100.7h31.31"/><path class="cls-6" d="M1966.76 139.56h-25.8"/><path class="cls-7" d="M1914.1 139.56l-19.44-19.43"/><path class="cls-5" d="M1951.99 139.56l19.43-19.43M1925.16 139.56h-16.89"/></g></svg>